<?xml version="1.0" encoding="UTF-8" standalone="no"?>
<!-- Created with Inkscape (http://www.inkscape.org/) -->

<svg
   xmlns:dc="http://purl.org/dc/elements/1.1/"
   xmlns:cc="http://creativecommons.org/ns#"
   xmlns:rdf="http://www.w3.org/1999/02/22-rdf-syntax-ns#"
   xmlns:svg="http://www.w3.org/2000/svg"
   xmlns="http://www.w3.org/2000/svg"
   xmlns:sodipodi="http://sodipodi.sourceforge.net/DTD/sodipodi-0.dtd"
   xmlns:inkscape="http://www.inkscape.org/namespaces/inkscape"
   width="200"
   height="200"
   viewBox="0 0 200 200"
   id="svg2"
   version="1.1"
   inkscape:version="0.91 r13725"
   sodipodi:docname="ghost_writer.svg">
  <defs
     id="defs4" />
  <sodipodi:namedview
     id="base"
     pagecolor="#ffffff"
     bordercolor="#666666"
     borderopacity="1.0"
     inkscape:pageopacity="0.0"
     inkscape:pageshadow="2"
     inkscape:zoom="1.4"
     inkscape:cx="117.18098"
     inkscape:cy="170.74114"
     inkscape:document-units="px"
     inkscape:current-layer="layer1"
     showgrid="false"
     units="px"
     inkscape:window-width="1366"
     inkscape:window-height="746"
     inkscape:window-x="-8"
     inkscape:window-y="-8"
     inkscape:window-maximized="1" />
  <metadata
     id="metadata7">
    <rdf:RDF>
      <cc:Work
         rdf:about="">
        <dc:format>image/svg+xml</dc:format>
        <dc:type
           rdf:resource="http://purl.org/dc/dcmitype/StillImage" />
        <dc:title></dc:title>
      </cc:Work>
    </rdf:RDF>
  </metadata>
  <g
     inkscape:label="Layer 1"
     inkscape:groupmode="layer"
     id="layer1"
     transform="translate(0,-852.36216)">
    <path
       style="opacity:1;fill:#504fbe;fill-opacity:1;stroke:#ffffff;stroke-width:3.63103151;stroke-linecap:butt;stroke-linejoin:round;stroke-miterlimit:4;stroke-dasharray:none;stroke-opacity:1"
       d="M 98.40625 5.4453125 A 94.924232 95.281418 0 0 0 5.0878906 102.28516 A 94.924232 95.281418 0 0 0 101.53906 195.98242 A 94.924232 95.281418 0 0 0 194.91211 99.197266 L 194.91016 99.087891 A 94.924232 95.281418 0 0 0 193.63281 85.767578 L 156.81836 85.767578 A 58.787178 59.008385 0 0 1 159.09375 100.95703 L 159.09375 101.02539 A 58.787178 59.008385 0 0 1 101.26758 160.96484 A 58.787178 59.008385 0 0 1 41.535156 102.9375 A 58.787178 59.008385 0 0 1 99.328125 42.964844 A 58.787178 59.008385 0 0 1 138.45312 57.179688 L 169.74414 36.277344 A 94.924232 95.281418 0 0 0 98.40625 5.4453125 z M 183.80664 56.417969 L 179.9668 58.982422 L 185.21289 58.982422 A 94.924232 95.281418 0 0 0 183.80664 56.417969 z "
       transform="translate(0,852.36216)"
       id="path4136" />
    <rect
       style="opacity:1;fill:#504fbe;fill-opacity:1;stroke:#504fbe;stroke-width:1.33700001;stroke-linecap:butt;stroke-linejoin:round;stroke-miterlimit:4;stroke-dasharray:none;stroke-opacity:1"
       id="rect4141"
       width="78.928574"
       height="26.785715"
       x="112.03825"
       y="939.505"
       ry="0" />
  </g>
</svg>
